# xmcd CD database file
#
# Track frame offsets:
#	150
#	6782
#	25642
#	40620
#	55437
#	72715
#	94337
#	111845
#	122330
#	136170
#	156915
#	170017
#	188205
#	204347
#	214157
#	236607
#	254465
#	275405
#	299637
#	320687
#	338805
#
# Disc length: 4750 seconds
#
# Revision: 8
# Processed by: cddbd v1.5.2PL0 Copyright (c) Steve Scherf et al.
# Submitted via: CDex 1.70beta3
#
DISCID=3e128c15
DTITLE=Various Artist - image 2 emotional and relaxing
DYEAR=2001
DGENRE=Easy Listening
TTITLE0=カール・ジェンキンズ/アディエマス変奏曲〜第１変奏曲
TTITLE1=郭英男/NS2000[テレビ朝日系「ニュースステーション」メイン・テーマカバー曲]
TTITLE2=ウエス/ケカナ[キリン「生茶」CM曲]
TTITLE3=ディープ・フォレスト/フリーダム・クライ[ホンダ「CIVIC」CM曲]
TTITLE4=赤坂達三/マイ・フェイバリット・シングス[JR東海「京都キャンペーン」CM曲 スペシャル・バージョン]
TTITLE5=子龍 Featuring 三村奈々恵/ユニバース[テレビ朝日系「素敵な宇宙船地球号」テーマ曲]
TTITLE6=盤古2001/中国謎的女神[テレビ朝日系「世界の発見！中国謎のヴィーナス」テーマ曲]
TTITLE7=ヨーヨー・マ/グリーン・デスティニー〜愛のテーマ[サントリー「ローヤル」CM曲]
TTITLE8=羽毛田丈史/地球白書[NHK「地球白書」テーマ曲]
TTITLE9=リチャード・サウザー/ファイア・オブ・ザ・スピリット
TTITLE10=加古隆/青の地平[NHK「ドキュメントにっぽん」テーマ曲]
TTITLE11=ゴンチチ/風の国[2001 MIX]
TTITLE12=ジョン・ウィリアムズ＆イツァーク・パールマン/シンドラーのリスト[映画「シンドラーのリスト」テーマカバー曲]
TTITLE13=レイチェル・ポートマン/サイダーハウス・ルール〜メイン・テーマ[映画サイダーハウス・ルール」テーマ曲]
TTITLE14=葉加瀬太郎/トゥー・ラブ・ユー・モア[フジテレビ系ドラマ「恋人よ」テーマカバー曲]
TTITLE15=Arico/Letters(エディット・バージョン)[フジテレビ系ドラマ「愛をください」愛のテーマ]
TTITLE16=木村大/三千院[関西テレビ/フジテレビ系ドラマ「神様のいたずら」使用曲]
TTITLE17=岩代太郎 Featuring デイヴィ・スピラーン/タイム・オブ・デスティニー[NHK大河ドラマ「葵 徳川三代」葵紀行のテーマ]
TTITLE18=丸山和範 Featuring ショーロ・クラブ/祈りのシチリアーノ[NHKスペシャル「激動・地中海世界」テーマ曲:ショーロ・クラブ・バージョン]
TTITLE19=小松亮太＆齋藤恒芳/風たちとの出逢い[MBS/TBS系「世界ウルルン滞在記」テーマカバー曲]
TTITLE20=シャルロット・チャーチ/ジャスト・ウェーヴ・ハロー[米フォード「ミレニアム・キャンペーン」使用曲]
EXTD=YEAR: 2001
EXTT0=
EXTT1=
EXTT2=
EXTT3=
EXTT4=
EXTT5=
EXTT6=
EXTT7=
EXTT8=
EXTT9=
EXTT10=
EXTT11=
EXTT12=
EXTT13=
EXTT14=
EXTT15=
EXTT16=
EXTT17=
EXTT18=
EXTT19=
EXTT20=
PLAYORDER=
